<mxfile host="Electron" modified="2023-04-25T04:08:23.437Z" agent="Mozilla/5.0 (Windows NT 10.0; Win64; x64) AppleWebKit/537.36 (KHTML, like Gecko) draw.io/21.1.2 Chrome/106.0.5249.199 Electron/21.4.3 Safari/537.36" etag="amUZ7eVrlwMediFkMYU4" version="21.1.2" type="device" pages="3">
  <diagram name="點擊按鈕.儲存" id="pjCl8B2JnT_7Cohr8Sfa">
    <mxGraphModel dx="1434" dy="2013" grid="1" gridSize="10" guides="1" tooltips="1" connect="1" arrows="1" fold="1" page="1" pageScale="1" pageWidth="827" pageHeight="1169" math="0" shadow="0">
      <root>
        <mxCell id="0" />
        <mxCell id="1" parent="0" />
        <mxCell id="IXitg7xgkK4V3mKh-Ctm-1" value="密碼相關設定 - 儲存" style="swimlane;childLayout=stackLayout;resizeParent=1;resizeParentMax=0;startSize=20;html=1;" vertex="1" parent="1">
          <mxGeometry x="170.00000000000045" y="-10" width="560" height="480" as="geometry" />
        </mxCell>
        <mxCell id="IXitg7xgkK4V3mKh-Ctm-2" value="站台管理員" style="swimlane;startSize=20;html=1;" vertex="1" parent="IXitg7xgkK4V3mKh-Ctm-1">
          <mxGeometry y="20" width="210" height="460" as="geometry" />
        </mxCell>
        <mxCell id="IXitg7xgkK4V3mKh-Ctm-6" value="點擊按鈕.儲存" style="rounded=1;whiteSpace=wrap;html=1;" vertex="1" parent="IXitg7xgkK4V3mKh-Ctm-2">
          <mxGeometry x="39.999999999999545" y="50" width="120" height="60" as="geometry" />
        </mxCell>
        <mxCell id="IXitg7xgkK4V3mKh-Ctm-13" value="執行結束" style="rounded=1;whiteSpace=wrap;html=1;" vertex="1" parent="IXitg7xgkK4V3mKh-Ctm-2">
          <mxGeometry x="44.999999999999545" y="350" width="120" height="60" as="geometry" />
        </mxCell>
        <mxCell id="IXitg7xgkK4V3mKh-Ctm-3" value="表單.密碼相關設定" style="swimlane;startSize=20;html=1;" vertex="1" parent="IXitg7xgkK4V3mKh-Ctm-1">
          <mxGeometry x="210" y="20" width="350" height="460" as="geometry" />
        </mxCell>
        <mxCell id="IXitg7xgkK4V3mKh-Ctm-12" value="" style="edgeStyle=orthogonalEdgeStyle;rounded=0;orthogonalLoop=1;jettySize=auto;html=1;" edge="1" parent="IXitg7xgkK4V3mKh-Ctm-3" source="IXitg7xgkK4V3mKh-Ctm-7" target="IXitg7xgkK4V3mKh-Ctm-11">
          <mxGeometry relative="1" as="geometry" />
        </mxCell>
        <mxCell id="IXitg7xgkK4V3mKh-Ctm-16" value="" style="edgeStyle=orthogonalEdgeStyle;rounded=0;orthogonalLoop=1;jettySize=auto;html=1;" edge="1" parent="IXitg7xgkK4V3mKh-Ctm-3" source="IXitg7xgkK4V3mKh-Ctm-7" target="IXitg7xgkK4V3mKh-Ctm-15">
          <mxGeometry relative="1" as="geometry" />
        </mxCell>
        <mxCell id="IXitg7xgkK4V3mKh-Ctm-7" value="必要欄位&lt;br&gt;不為空" style="rhombus;whiteSpace=wrap;html=1;" vertex="1" parent="IXitg7xgkK4V3mKh-Ctm-3">
          <mxGeometry x="69.99999999999955" y="40" width="80" height="80" as="geometry" />
        </mxCell>
        <mxCell id="IXitg7xgkK4V3mKh-Ctm-11" value="顯示錯誤訊息" style="whiteSpace=wrap;html=1;" vertex="1" parent="IXitg7xgkK4V3mKh-Ctm-3">
          <mxGeometry x="49.999999999999545" y="210" width="120" height="60" as="geometry" />
        </mxCell>
        <mxCell id="IXitg7xgkK4V3mKh-Ctm-19" value="" style="edgeStyle=orthogonalEdgeStyle;rounded=0;orthogonalLoop=1;jettySize=auto;html=1;" edge="1" parent="IXitg7xgkK4V3mKh-Ctm-3" source="IXitg7xgkK4V3mKh-Ctm-15" target="IXitg7xgkK4V3mKh-Ctm-18">
          <mxGeometry relative="1" as="geometry" />
        </mxCell>
        <mxCell id="IXitg7xgkK4V3mKh-Ctm-15" value="儲存密碼相關設定" style="whiteSpace=wrap;html=1;" vertex="1" parent="IXitg7xgkK4V3mKh-Ctm-3">
          <mxGeometry x="199.99999999999955" y="210" width="120" height="60" as="geometry" />
        </mxCell>
        <mxCell id="IXitg7xgkK4V3mKh-Ctm-18" value="關閉表單" style="whiteSpace=wrap;html=1;" vertex="1" parent="IXitg7xgkK4V3mKh-Ctm-3">
          <mxGeometry x="199.99999999999955" y="350" width="120" height="60" as="geometry" />
        </mxCell>
        <mxCell id="IXitg7xgkK4V3mKh-Ctm-8" style="edgeStyle=orthogonalEdgeStyle;rounded=0;orthogonalLoop=1;jettySize=auto;html=1;" edge="1" parent="IXitg7xgkK4V3mKh-Ctm-1" source="IXitg7xgkK4V3mKh-Ctm-6" target="IXitg7xgkK4V3mKh-Ctm-7">
          <mxGeometry relative="1" as="geometry" />
        </mxCell>
        <mxCell id="IXitg7xgkK4V3mKh-Ctm-14" style="edgeStyle=orthogonalEdgeStyle;rounded=0;orthogonalLoop=1;jettySize=auto;html=1;" edge="1" parent="IXitg7xgkK4V3mKh-Ctm-1" source="IXitg7xgkK4V3mKh-Ctm-11" target="IXitg7xgkK4V3mKh-Ctm-13">
          <mxGeometry relative="1" as="geometry" />
        </mxCell>
        <mxCell id="IXitg7xgkK4V3mKh-Ctm-20" style="edgeStyle=orthogonalEdgeStyle;rounded=0;orthogonalLoop=1;jettySize=auto;html=1;" edge="1" parent="IXitg7xgkK4V3mKh-Ctm-1" source="IXitg7xgkK4V3mKh-Ctm-18" target="IXitg7xgkK4V3mKh-Ctm-13">
          <mxGeometry relative="1" as="geometry" />
        </mxCell>
      </root>
    </mxGraphModel>
  </diagram>
  <diagram id="BiXf3ul9KLckty47Ng4F" name="點擊按鈕.放棄">
    <mxGraphModel dx="1434" dy="2013" grid="1" gridSize="10" guides="1" tooltips="1" connect="1" arrows="1" fold="1" page="1" pageScale="1" pageWidth="827" pageHeight="1169" math="0" shadow="0">
      <root>
        <mxCell id="0" />
        <mxCell id="1" parent="0" />
        <mxCell id="TEbYsEQ889XH6QYTw6Yb-1" value="密碼相關設定 - 放棄" style="swimlane;childLayout=stackLayout;resizeParent=1;resizeParentMax=0;startSize=20;html=1;" vertex="1" parent="1">
          <mxGeometry x="170" y="-10" width="430" height="280" as="geometry" />
        </mxCell>
        <mxCell id="TEbYsEQ889XH6QYTw6Yb-2" value="站台管理員" style="swimlane;startSize=20;html=1;" vertex="1" parent="TEbYsEQ889XH6QYTw6Yb-1">
          <mxGeometry y="20" width="210" height="260" as="geometry" />
        </mxCell>
        <mxCell id="TEbYsEQ889XH6QYTw6Yb-3" value="點擊按鈕.放棄" style="rounded=1;whiteSpace=wrap;html=1;" vertex="1" parent="TEbYsEQ889XH6QYTw6Yb-2">
          <mxGeometry x="39.999999999999545" y="50" width="120" height="60" as="geometry" />
        </mxCell>
        <mxCell id="TEbYsEQ889XH6QYTw6Yb-4" value="執行結束" style="rounded=1;whiteSpace=wrap;html=1;" vertex="1" parent="TEbYsEQ889XH6QYTw6Yb-2">
          <mxGeometry x="39.999999999999545" y="160" width="120" height="60" as="geometry" />
        </mxCell>
        <mxCell id="TEbYsEQ889XH6QYTw6Yb-5" value="表單.密碼相關設定" style="swimlane;startSize=20;html=1;" vertex="1" parent="TEbYsEQ889XH6QYTw6Yb-1">
          <mxGeometry x="210" y="20" width="220" height="260" as="geometry" />
        </mxCell>
        <mxCell id="TEbYsEQ889XH6QYTw6Yb-12" value="關閉表單" style="whiteSpace=wrap;html=1;" vertex="1" parent="TEbYsEQ889XH6QYTw6Yb-5">
          <mxGeometry x="49.999999999999545" y="50" width="120" height="60" as="geometry" />
        </mxCell>
        <mxCell id="TEbYsEQ889XH6QYTw6Yb-16" style="edgeStyle=orthogonalEdgeStyle;rounded=0;orthogonalLoop=1;jettySize=auto;html=1;" edge="1" parent="TEbYsEQ889XH6QYTw6Yb-1" source="TEbYsEQ889XH6QYTw6Yb-3" target="TEbYsEQ889XH6QYTw6Yb-12">
          <mxGeometry relative="1" as="geometry" />
        </mxCell>
        <mxCell id="TEbYsEQ889XH6QYTw6Yb-17" style="edgeStyle=orthogonalEdgeStyle;rounded=0;orthogonalLoop=1;jettySize=auto;html=1;entryX=1;entryY=0.5;entryDx=0;entryDy=0;exitX=0.5;exitY=1;exitDx=0;exitDy=0;" edge="1" parent="TEbYsEQ889XH6QYTw6Yb-1" source="TEbYsEQ889XH6QYTw6Yb-12" target="TEbYsEQ889XH6QYTw6Yb-4">
          <mxGeometry relative="1" as="geometry" />
        </mxCell>
      </root>
    </mxGraphModel>
  </diagram>
  <diagram id="fIlnyV-R0u_GJEdBiSpK" name="下拉欄位.手機簡訊驗證">
    <mxGraphModel dx="1434" dy="2013" grid="1" gridSize="10" guides="1" tooltips="1" connect="1" arrows="1" fold="1" page="1" pageScale="1" pageWidth="827" pageHeight="1169" math="0" shadow="0">
      <root>
        <mxCell id="0" />
        <mxCell id="1" parent="0" />
        <mxCell id="kS-ehpYI8Xs2e1pKWleN-1" value="密碼相關設定 - 切換驗證方式" style="swimlane;childLayout=stackLayout;resizeParent=1;resizeParentMax=0;startSize=20;html=1;" vertex="1" parent="1">
          <mxGeometry x="170" y="-10" width="560" height="440" as="geometry" />
        </mxCell>
        <mxCell id="kS-ehpYI8Xs2e1pKWleN-2" value="站台管理員" style="swimlane;startSize=20;html=1;" vertex="1" parent="kS-ehpYI8Xs2e1pKWleN-1">
          <mxGeometry y="20" width="210" height="420" as="geometry" />
        </mxCell>
        <mxCell id="kS-ehpYI8Xs2e1pKWleN-3" value="下拉欄位.手機簡訊驗證切換選項" style="rounded=1;whiteSpace=wrap;html=1;" vertex="1" parent="kS-ehpYI8Xs2e1pKWleN-2">
          <mxGeometry x="39.999999999999545" y="50" width="120" height="60" as="geometry" />
        </mxCell>
        <mxCell id="kS-ehpYI8Xs2e1pKWleN-4" value="執行結束" style="rounded=1;whiteSpace=wrap;html=1;" vertex="1" parent="kS-ehpYI8Xs2e1pKWleN-2">
          <mxGeometry x="39.999999999999545" y="310" width="120" height="60" as="geometry" />
        </mxCell>
        <mxCell id="kS-ehpYI8Xs2e1pKWleN-5" value="表單.密碼相關設定" style="swimlane;startSize=20;html=1;" vertex="1" parent="kS-ehpYI8Xs2e1pKWleN-1">
          <mxGeometry x="210" y="20" width="350" height="420" as="geometry" />
        </mxCell>
        <mxCell id="83m7c1r0LxCxan8kNKR7-4" value="" style="edgeStyle=orthogonalEdgeStyle;rounded=0;orthogonalLoop=1;jettySize=auto;html=1;" edge="1" parent="kS-ehpYI8Xs2e1pKWleN-5" source="83m7c1r0LxCxan8kNKR7-1" target="83m7c1r0LxCxan8kNKR7-3">
          <mxGeometry relative="1" as="geometry" />
        </mxCell>
        <mxCell id="83m7c1r0LxCxan8kNKR7-6" value="" style="edgeStyle=orthogonalEdgeStyle;rounded=0;orthogonalLoop=1;jettySize=auto;html=1;" edge="1" parent="kS-ehpYI8Xs2e1pKWleN-5" source="83m7c1r0LxCxan8kNKR7-1" target="83m7c1r0LxCxan8kNKR7-5">
          <mxGeometry relative="1" as="geometry" />
        </mxCell>
        <mxCell id="83m7c1r0LxCxan8kNKR7-1" value="選擇是" style="rhombus;whiteSpace=wrap;html=1;" vertex="1" parent="kS-ehpYI8Xs2e1pKWleN-5">
          <mxGeometry x="70" y="40" width="80" height="80" as="geometry" />
        </mxCell>
        <mxCell id="83m7c1r0LxCxan8kNKR7-3" value="將欄位.手機簡訊驗證,激活時間限制(秒)致能" style="whiteSpace=wrap;html=1;" vertex="1" parent="kS-ehpYI8Xs2e1pKWleN-5">
          <mxGeometry x="50" y="210" width="120" height="60" as="geometry" />
        </mxCell>
        <mxCell id="83m7c1r0LxCxan8kNKR7-5" value="將欄位.手機簡訊驗證,激活時間限制(秒)除能" style="whiteSpace=wrap;html=1;" vertex="1" parent="kS-ehpYI8Xs2e1pKWleN-5">
          <mxGeometry x="200" y="210" width="120" height="60" as="geometry" />
        </mxCell>
        <mxCell id="83m7c1r0LxCxan8kNKR7-2" style="edgeStyle=orthogonalEdgeStyle;rounded=0;orthogonalLoop=1;jettySize=auto;html=1;" edge="1" parent="kS-ehpYI8Xs2e1pKWleN-1" source="kS-ehpYI8Xs2e1pKWleN-3" target="83m7c1r0LxCxan8kNKR7-1">
          <mxGeometry relative="1" as="geometry" />
        </mxCell>
        <mxCell id="83m7c1r0LxCxan8kNKR7-7" style="edgeStyle=orthogonalEdgeStyle;rounded=0;orthogonalLoop=1;jettySize=auto;html=1;entryX=1;entryY=0.5;entryDx=0;entryDy=0;exitX=0.5;exitY=1;exitDx=0;exitDy=0;" edge="1" parent="kS-ehpYI8Xs2e1pKWleN-1" source="83m7c1r0LxCxan8kNKR7-3" target="kS-ehpYI8Xs2e1pKWleN-4">
          <mxGeometry relative="1" as="geometry" />
        </mxCell>
        <mxCell id="83m7c1r0LxCxan8kNKR7-8" style="edgeStyle=orthogonalEdgeStyle;rounded=0;orthogonalLoop=1;jettySize=auto;html=1;entryX=1;entryY=0.5;entryDx=0;entryDy=0;exitX=0.5;exitY=1;exitDx=0;exitDy=0;" edge="1" parent="kS-ehpYI8Xs2e1pKWleN-1" source="83m7c1r0LxCxan8kNKR7-5" target="kS-ehpYI8Xs2e1pKWleN-4">
          <mxGeometry relative="1" as="geometry" />
        </mxCell>
      </root>
    </mxGraphModel>
  </diagram>
</mxfile>
